<?xml version="1.0" standalone="no"?>
<!DOCTYPE svg PUBLIC "-//W3C//DTD SVG 20010904//EN"
 "http://www.w3.org/TR/2001/REC-SVG-20010904/DTD/svg10.dtd">
<svg version="1.0" xmlns="http://www.w3.org/2000/svg"
 width="64.000000pt" height="64.000000pt" viewBox="0 0 64.000000 64.000000"
 preserveAspectRatio="xMidYMid meet">

<g transform="translate(0.000000,64.000000) scale(0.100000,-0.100000)"
fill="#000000" stroke="none">
<path d="M267 450 c-74 -71 -130 -134 -137 -153 -6 -17 -20 -52 -31 -76 -14
-30 -17 -47 -9 -56 7 -8 4 -17 -10 -30 -26 -24 -25 -27 11 -48 28 -16 33 -16
48 -2 12 10 20 12 28 4 7 -7 24 -4 54 10 24 11 58 25 75 31 35 13 274 249 274
270 0 16 -152 170 -167 170 -7 0 -68 -54 -136 -120z m217 30 c36 -39 66 -74
66 -78 0 -4 -18 -25 -40 -47 -33 -32 -41 -36 -55 -25 -20 17 -32 5 -15 -15 10
-12 10 -19 2 -27 -9 -9 -18 -6 -37 12 -33 31 -46 18 -15 -15 18 -19 21 -28 12
-37 -8 -8 -15 -8 -27 2 -20 17 -32 5 -15 -15 11 -14 7 -22 -25 -55 -22 -22
-46 -40 -54 -40 -20 0 -141 120 -141 140 0 17 249 270 266 270 6 0 41 -32 78
-70z m-295 -294 l53 -54 -28 -15 c-28 -15 -30 -15 -71 25 -41 40 -42 42 -27
70 8 15 16 28 17 28 2 0 27 -24 56 -54z m-58 -62 c10 -13 10 -17 -2 -24 -17
-11 -45 13 -35 29 10 15 21 14 37 -5z"/>
</g>
</svg>
